<?xml version="1.0" encoding="UTF-8"?>
<svg version="1.0" viewBox="0 0 16 16" xmlns="http://www.w3.org/2000/svg" xmlns:cc="http://creativecommons.org/ns#" xmlns:dc="http://purl.org/dc/elements/1.1/" xmlns:rdf="http://www.w3.org/1999/02/22-rdf-syntax-ns#" xmlns:xlink="http://www.w3.org/1999/xlink">
<defs>
<style type="text/css">.ColorScheme-Text { color:#dfdfdf; } .ColorScheme-Highlight { color:#4285f4; }</style>
</defs>
<metadata>
<rdf:RDF>
<cc:Work rdf:about="">
<dc:format>image/svg+xml</dc:format>
<dc:type rdf:resource="http://purl.org/dc/dcmitype/StillImage"/>
<dc:title/>
</cc:Work>
</rdf:RDF>
</metadata>
<g transform="translate(-269.52 -265.6)">
<g transform="matrix(1.3474 0 0 1.3474 -632.88 -513.34)">
<g transform="matrix(.25 0 0 .25 502.31 469.22)">
<g transform="matrix(.58088 0 0 .58088 344.21 203.94)" fill="#ff6400" aria-label="">
<path d="m601.29 403.96q15.308 0.3479 25.339 10.437 10.089 10.089 10.437 25.339-0.3479 15.25-10.437 25.339-10.031 10.089-25.339 10.437-15.25-0.3479-25.339-10.437-10.031-10.089-10.379-25.339 0.3479-15.25 10.379-25.339 10.089-10.089 25.339-10.437zm12.93 17.801-12.93 12.93-12.872-12.93-5.0446 5.0446 12.93 12.93-12.93 12.93 5.0446 5.0446 12.872-12.93 12.93 12.93 5.0446-5.0446-12.93-12.93 12.93-12.93z" fill="#ff6400" stroke-width="2.9688"/>
</g>
</g>
</g>
</g>
</svg>
